<svg width="1200" height="969" xmlns="http://www.w3.org/2000/svg" version="1.1">
<defs><style>
        .depth-top { fill: #2ca25f; opacity: 0.85; }
        .depth-bottom { fill: #3C5488; opacity: 0.85; }
        .baseline { stroke: #555; stroke-width: 1px; }
        .axis-tick { stroke: #555; stroke-width: 1px; }
        .axis-label { fill: #222; text-anchor: middle; dominant-baseline: central; }
        .mean { stroke: #cc3333; stroke-width: 1.2px; stroke-dasharray: 6 4; }
        .depth-zero-bg { fill: #FAD7DD; opacity: 0.8; }
        .depth-low-bg { fill: #B7DBEA; opacity: 0.8; }
        /* bar rectangles reuse depth-top/depth-bottom fill */
    </style></defs>
<rect x="115.20" y="110.70" width="969.60" height="49.30" class="depth-top"/>
<line x1="120.00" y1="110.70" x2="1080.00" y2="110.70" class="mean"/>
<rect x="115.20" y="160.00" width="969.60" height="57.37" class="depth-bottom"/>
<line x1="120.00" y1="217.37" x2="1080.00" y2="217.37" class="mean"/>
<line x1="120.00" y1="160.00" x2="1080.00" y2="160.00" class="baseline"/>
<line x1="120.00" y1="154.00" x2="120.00" y2="160.00" class="axis-tick"/>
<text x="120.00" y="150.00" class="axis-label" font-size="12">1</text>
<line x1="312.00" y1="154.00" x2="312.00" y2="160.00" class="axis-tick"/>
<text x="312.00" y="150.00" class="axis-label" font-size="12">21</text>
<line x1="504.00" y1="154.00" x2="504.00" y2="160.00" class="axis-tick"/>
<text x="504.00" y="150.00" class="axis-label" font-size="12">41</text>
<line x1="696.00" y1="154.00" x2="696.00" y2="160.00" class="axis-tick"/>
<text x="696.00" y="150.00" class="axis-label" font-size="12">60</text>
<line x1="888.00" y1="154.00" x2="888.00" y2="160.00" class="axis-tick"/>
<text x="888.00" y="150.00" class="axis-label" font-size="12">80</text>
<line x1="1080.00" y1="154.00" x2="1080.00" y2="160.00" class="axis-tick"/>
<text x="1080.00" y="150.00" class="axis-label" font-size="12">100</text>
<g transform="translate(0,69.33)"><defs><style>.chro{fill:#838B83;}.align{fill:#607B8B;opacity:0.5;}.line{stroke:#000000;stroke-width:3.5px;}.exon{fill:#36648B;}.UTR3{fill:#2F4F4F;}.UTR5{fill:#2F4F4F;}.intron{stroke:#36648B;stroke-width:1.5px;}</style></defs><rect x="120.0" y="266.6666666666667" width="960.0" height="15" fill="grey" class="chro"/><rect x="120.0" y="533.3333333333334" width="960.0" height="15" fill="grey" class="chro"/><text x="120.0" y="254.16666666666669" fill="black" font-size="18" transform="rotate(0,120.0 254.16666666666669)" class="label">chr1</text><text x="120.0" y="582.3333333333334" fill="black" font-size="18" transform="rotate(0,120.0 582.3333333333334)" class="label">chr2</text><path d="M120.0,281.6666666666667 L120.0,533.3333333333334 L600.0,533.3333333333334 L600.0,281.6666666666667 Z"  class="align"/><path d="M1080.0,281.6666666666667 L600.0,533.3333333333334 L1080.0,533.3333333333334 L600.0,281.6666666666667 Z" style="fill: red;" class="align"/><polyline points="888.0,75.0 888.0,80.0 1080.0,80.0 1080.0,75.0 " fill="none" stroke="black" class="scale"/><rect x="888.0" y="60.0" width="192.0" height="25" fill="none" opacity="0" class="scale-bbox"/><text x="952.0" y="70.0" fill="black"  font-size="18" class="scale-text">20 bp</text><defs><clipPath id="clipPath1"></clipPath></defs></g>
<rect x="115.20" y="745.33" width="969.60" height="48.33" class="depth-top"/>
<line x1="120.00" y1="745.33" x2="1080.00" y2="745.33" class="mean"/>
<rect x="115.20" y="793.67" width="969.60" height="58.33" class="depth-bottom"/>
<line x1="120.00" y1="852.00" x2="1080.00" y2="852.00" class="mean"/>
<line x1="120.00" y1="793.67" x2="1080.00" y2="793.67" class="baseline"/>
<line x1="120.00" y1="793.67" x2="120.00" y2="799.67" class="axis-tick"/>
<text x="120.00" y="811.67" class="axis-label" font-size="12">1</text>
<line x1="312.00" y1="793.67" x2="312.00" y2="799.67" class="axis-tick"/>
<text x="312.00" y="811.67" class="axis-label" font-size="12">21</text>
<line x1="504.00" y1="793.67" x2="504.00" y2="799.67" class="axis-tick"/>
<text x="504.00" y="811.67" class="axis-label" font-size="12">41</text>
<line x1="696.00" y1="793.67" x2="696.00" y2="799.67" class="axis-tick"/>
<text x="696.00" y="811.67" class="axis-label" font-size="12">60</text>
<line x1="888.00" y1="793.67" x2="888.00" y2="799.67" class="axis-tick"/>
<text x="888.00" y="811.67" class="axis-label" font-size="12">80</text>
<line x1="1080.00" y1="793.67" x2="1080.00" y2="799.67" class="axis-tick"/>
<text x="1080.00" y="811.67" class="axis-label" font-size="12">100</text>
</svg>