<svg width="1200" height="1160" xmlns="http://www.w3.org/2000/svg"><path d="M 206.39999999999998 80 L 206.39999999999998 97.8542695973546 L 302.4 95.21384944563314 L 398.4 96.47119237502432 L 494.40000000000003 96.15685664267652 L 590.4 96.5026259482591 L 686.4 98.89157751410232 L 782.4 97.88570317058938 L 878.4000000000001 95.4338844582766 L 974.4 94.86808014005058 L 1070.4 95.62248589768528 L 1070.4 80 L 206.39999999999998 80 Z" fill="#2ca25f" stroke="none" opacity="0.7"/>
<line x1="120" y1="80" x2="1080" y2="80" stroke="black" stroke-width="1"/>
<line x1="120" y1="96" x2="1080" y2="96" stroke="red" stroke-width="1" stroke-dasharray="5,5"/>
<path d="M 206.39999999999998 340 L 206.39999999999998 324.08012478450047 L 302.4 323.86785978162715 L 398.4 322.886134143338 L 494.40000000000003 324.53118791560627 L 590.4 324.2127904112963 L 686.4 325.1414497988671 L 782.4 324.1066579098596 L 878.4000000000001 323.9739922830638 L 974.4 324.71691979312044 L 1070.4 324.45158853952876 L 1070.4 340 L 206.39999999999998 340 Z" fill="#3C5488" stroke="none" opacity="0.7"/>
<line x1="120" y1="340" x2="1080" y2="340" stroke="black" stroke-width="1"/>
<line x1="120" y1="324" x2="1080" y2="324" stroke="red" stroke-width="1" stroke-dasharray="5,5"/><g transform="translate(0, 180)">
<defs><style>.chro{fill:rgb(131,139,131);}.align{fill:rgb(96,123,139);opacity:0.5;}.line{stroke:rgb(0,0,0);stroke-width:3.5px;}.exon{fill:rgb(54,100,139);}.UTR3{fill:rgb(47,79,79);}.UTR5{fill:rgb(47,79,79);}.intron{stroke:rgb(54,100,139);stroke-width:1.5px;}</style></defs>
<rect x="120" y="333.33333333333337" width="960" height="20" fill="grey" class="chro"/>
<rect x="120" y="486.66666666666674" width="960" height="20" fill="grey" class="chro"/>
<defs><clipPath id="clipPathCtg">
<rect x="120" y="333.33333333333337" width="960" height="20" fill="grey" class="chro"/>
<rect x="120" y="486.66666666666674" width="960" height="20" fill="grey" class="chro"/>
</clipPath></defs>
<path d="M 206.39999999999998 0 L 206.39999999999998 17.854269597354598 L 302.4 15.213849445633144 L 398.4 16.471192375024312 L 494.40000000000003 16.15685664267652 L 590.4 16.502625948259094 L 686.4 18.89157751410232 L 782.4 17.885703170589377 L 878.4000000000001 15.433884458276601 L 974.4 14.868080140050575 L 1070.4 15.622485897685275 L 1070.4 0 L 206.39999999999998 0 Z" fill="#2ca25f" stroke="none" opacity="0.7"/>
<line x1="120" y1="0" x2="1080" y2="0" stroke="black" stroke-width="1"/>
<line x1="120" y1="16" x2="1080" y2="16" stroke="red" stroke-width="1" stroke-dasharray="5,5"/>
<path d="M 206.39999999999998 160 L 206.39999999999998 144.0270585337821 L 302.4 144.1862572859371 L 398.4 144.53118791560627 L 494.40000000000003 143.78826040554964 L 590.4 142.75346851654217 L 686.4 143.36373039980296 L 782.4 144.13319103521877 L 878.4000000000001 143.8147935309088 L 974.4 143.07186602085216 L 1070.4 144.31892291273294 L 1070.4 160 L 206.39999999999998 160 Z" fill="#3C5488" stroke="none" opacity="0.7"/>
<line x1="120" y1="160" x2="1080" y2="160" stroke="black" stroke-width="1"/>
<line x1="120" y1="144" x2="1080" y2="144" stroke="red" stroke-width="1" stroke-dasharray="5,5"/>
<text x="1080" y="383.33333333333337" fill="black" font-size="30" transform="rotate(20,1080 383.33333333333337)" class="label">chr1</text>
<text x="1080" y="536.6666666666667" fill="black" font-size="30" transform="rotate(20,1080 536.6666666666667)" class="label">chr2</text>
<line x1="590.4" y1="0" x2="590.4" y2="800" stroke="rgba(255,0,0,0.3)" stroke-width="1" stroke-dasharray="2,2"/>
<line x1="878.4000000000001" y1="0" x2="878.4000000000001" y2="800" stroke="rgba(255,0,0,0.3)" stroke-width="1" stroke-dasharray="2,2"/>
</g><line x1="590.4" y1="0" x2="590.4" y2="1160" stroke="rgba(255,0,0,0.3)" stroke-width="1" stroke-dasharray="2,2"/>
<line x1="878.4000000000001" y1="0" x2="878.4000000000001" y2="1160" stroke="rgba(255,0,0,0.3)" stroke-width="1" stroke-dasharray="2,2"/></svg>